<?xml version="1.0" encoding="utf-8"?>
<!-- Generator: Adobe Illustrator 26.3.1, SVG Export Plug-In . SVG Version: 6.00 Build 0)  -->
<svg version="1.1" id="Layer_1" xmlns="http://www.w3.org/2000/svg" xmlns:xlink="http://www.w3.org/1999/xlink" x="0px" y="0px"
	 viewBox="0 0 200 100" style="enable-background:new 0 0 200 100;" xml:space="preserve">
<style type="text/css">
	.st0{fill:#BD4541;}
	.st1{fill:#6A6A6A;}
</style>
<g>
	<g>
		<g>
			<g>
				<g>
					<path class="st0" d="M89.51,75.58c0.18,0.37,0.49,0.92,1.04,0.92c0.67,0,1.96-1.23,2.5-1.72c0.49-0.42,1.22-0.86,2.2-0.86
						c2.39,0,3.48,2.2,3.48,3.8c0,1.17-0.36,2.27-2.38,3.25c2.02,1.04,2.38,2.13,2.38,3.3c0,1.59-1.09,3.73-3.48,3.73
						c-0.98,0-1.72-0.37-2.2-0.85c-0.55-0.44-1.84-1.66-2.5-1.66c-0.56,0-0.86,0.55-1.04,0.92l-1.65-0.92
						c0.24-0.67,0.92-1.72,2.08-1.72c0.92,0,1.89,0.61,2.75,1.3v-0.32c0-0.73,0.55-1.34,1.28-1.34c0.74,0,1.35,0.61,1.35,1.34
						c0,0.56-0.43,1.1-0.91,1.29c0.19,0.19,0.54,0.31,1.04,0.31c0.97,0,1.89-0.73,1.89-2.15c0-2.14-2.02-2.75-4.47-2.75
						c-0.24,0.49-0.55,0.79-1.04,0.79c-0.68,0-0.97-0.48-1.09-0.79h-0.92c-0.68,0-1.78,0.92-2.02,1.35
						c-0.8-0.74-1.66-1.35-3.12-1.35v-0.98c1.46,0,2.32-0.55,3.12-1.29c0.24,0.43,1.34,1.29,2.02,1.29h0.92
						c0.12-0.24,0.42-0.79,1.09-0.79c0.49,0,0.8,0.35,1.04,0.79c2.45,0,4.47-0.55,4.47-2.7c0-1.4-0.92-2.2-1.89-2.2
						c-0.5,0-0.85,0.18-1.04,0.37c0.49,0.18,0.91,0.73,0.91,1.28c0,0.73-0.61,1.29-1.35,1.29c-0.73,0-1.28-0.55-1.28-1.29v-0.31
						c-0.86,0.67-1.83,1.29-2.75,1.29c-1.16,0-1.84-1.04-2.08-1.78L89.51,75.58z"/>
				</g>
			</g>
			<g>
				<g>
					<path class="st0" d="M112.14,76.43c-0.24,0.74-0.92,1.78-2.08,1.78c-0.92,0-1.89-0.61-2.76-1.29v0.31
						c0,0.73-0.55,1.29-1.27,1.29c-0.74,0-1.36-0.55-1.36-1.29c0-0.55,0.44-1.1,0.93-1.28c-0.19-0.19-0.55-0.37-1.05-0.37
						c-0.98,0-1.9,0.8-1.9,2.2c0,2.14,2.02,2.7,4.47,2.7c0.25-0.44,0.55-0.79,1.05-0.79c0.67,0,0.97,0.55,1.09,0.79h0.91
						c0.69,0,1.78-0.86,2.02-1.29c0.8,0.74,1.66,1.29,3.14,1.29v0.98c-1.47,0-2.34,0.61-3.14,1.35c-0.23-0.43-1.33-1.35-2.02-1.35
						h-0.91c-0.12,0.31-0.43,0.79-1.09,0.79c-0.5,0-0.8-0.3-1.05-0.79c-2.45,0-4.47,0.61-4.47,2.75c0,1.41,0.92,2.15,1.9,2.15
						c0.5,0,0.86-0.12,1.05-0.31c-0.49-0.19-0.93-0.73-0.93-1.29c0-0.73,0.62-1.34,1.36-1.34c0.72,0,1.27,0.61,1.27,1.34v0.32
						c0.87-0.68,1.84-1.3,2.76-1.3c1.15,0,1.84,1.05,2.08,1.72l-1.66,0.92c-0.18-0.37-0.47-0.92-1.04-0.92
						c-0.67,0-1.96,1.23-2.51,1.66c-0.49,0.48-1.23,0.85-2.2,0.85c-2.39,0-3.49-2.15-3.49-3.73c0-1.17,0.37-2.26,2.38-3.3
						c-2.02-0.98-2.38-2.08-2.38-3.25c0-1.59,1.1-3.8,3.49-3.8c0.97,0,1.71,0.43,2.2,0.86c0.55,0.49,1.84,1.72,2.51,1.72
						c0.56,0,0.86-0.54,1.04-0.92L112.14,76.43z"/>
				</g>
			</g>
			<g>
				<path class="st0" d="M99.98,82.77c-0.08-0.49,0.47-0.92,0.81-1.18c0.09-0.07,0.35-0.17,0.41-0.27c0.02-0.03,0.01-0.07,0-0.12
					c-0.01-0.15-0.03-0.16-0.16-0.24c-0.7-0.5-1.06-1.42-1.06-2.26c-0.01,0.84-0.36,1.76-1.06,2.26c-0.12,0.09-0.15,0.09-0.16,0.24
					c0,0.05-0.02,0.08,0,0.12c0.06,0.09,0.32,0.2,0.41,0.27C99.52,81.85,100.07,82.28,99.98,82.77z"/>
			</g>
		</g>
	</g>
	<g>
		<path class="st1" d="M133.09,16.22c0.08-0.15,0.23-0.25,0.41-0.25c0.25,0,0.46,0.2,0.46,0.46v0v17.35
			c-0.09,2.25-1.94,4.05-4.21,4.05l-0.52,0.01c0,0-0.01,0-0.02,0c-0.42,0-0.76,0.34-0.76,0.76c0,0.42,0.34,0.76,0.76,0.76
			c0.01,0,0.01,0,0.02,0h4.73h7.78h5.33c0,0,0.01,0,0.01,0c0,0,0.01,0,0.01,0h0.01c0.41-0.01,0.74-0.34,0.74-0.76
			c0-0.41-0.33-0.75-0.74-0.76l-1.15-0.01c-2.27,0-4.12-1.79-4.21-4.04V18.29c0,0,0,0,0,0c0-2.33,1.89-4.22,4.22-4.22l1-0.01h0.09
			c0,0,0.01,0,0.01,0c0,0,0.01,0,0.01,0h0.01c0,0,0.01,0,0.01,0l0.01,0c0.4-0.02,0.71-0.35,0.71-0.76c0-0.41-0.33-0.75-0.74-0.76
			h-8.35c-1.66,0-3.54,0-4.36,0h-0.58v0c-0.01,0-0.02,0-0.02,0c-0.52,0-0.96,0.3-1.17,0.74l0,0l-6.97,14.57
			c-0.13,0.26-0.39,0.43-0.69,0.43c-0.25,0-0.47-0.12-0.61-0.31l-7.8-14.6h0c-0.29-0.5-0.84-0.85-1.46-0.85c0,0,0,0,0,0H101.8
			c-0.01,0-0.01,0-0.01,0c-0.01,0-0.01,0-0.01,0h-0.01c-0.41,0.01-0.74,0.35-0.74,0.76c0,0.41,0.33,0.75,0.74,0.76v0h0.52l0.41,0.01
			c2.26,0,4.11,1.78,4.21,4.02v15.78c-0.14,2.21-1.97,3.95-4.21,3.95l-0.52,0.01h-0.41c-0.36,0-0.67,0.25-0.75,0.61
			c-0.08,0.41,0.19,0.81,0.59,0.89c0.06,0.01,0.11,0.01,0.17,0.01h12.06c0,0,0.01,0,0.01,0c0.01,0,0.01,0,0.01,0h0.04v0
			c0.4-0.03,0.71-0.35,0.71-0.76c0-0.4-0.31-0.73-0.71-0.76v0h-0.35l-0.52-0.01c-2.28,0-4.13-1.81-4.21-4.07V16.4
			c0-0.21,0.17-0.38,0.38-0.38c0.15,0,0.28,0.08,0.34,0.21l11.48,21.3c0.17,0.36,0.53,0.61,0.95,0.61c0.31,0,0.59-0.14,0.78-0.35
			c0,0,0,0,0,0L133.09,16.22z"/>
		<path class="st1" d="M193.75,37.83L193.75,37.83l-0.18,0c-1.84-0.06-3.45-1.04-4.38-2.5L176.79,13.4l0,0
			c-0.33-0.65-1.04-1.39-1.81-1.39c-0.73,0-1.34,0.69-1.69,1.27v0.01l-0.01,0l-11.44,21.07c-1.22,2.08-3.49,3.48-6.07,3.48l0,0
			h-0.01v0c-0.36,0-0.67,0.25-0.75,0.61c-0.08,0.41,0.18,0.81,0.59,0.89c0.06,0.01,0.11,0.02,0.17,0.01h12.1c0.01,0,0.01,0,0.02,0
			c0.42,0,0.76-0.34,0.76-0.76c0-0.42-0.34-0.76-0.76-0.76v0h-0.08c-1.94-0.04-3.49-1.62-3.49-3.57c0-0.55,0.13-1.08,0.35-1.55
			l1.01-1.86c0.59-0.87,1.38-0.99,1.66-1h9.17c0.28,0.01,1.07,0.13,1.67,1.01c0.01,0.02,0.02,0.03,0.03,0.05l2.29,4.26v0
			c0.12,0.24,0.18,0.51,0.18,0.8c0,1.02-0.83,1.85-1.85,1.85h-2.97v0c-0.01,0-0.01,0-0.02,0c-0.42,0-0.76,0.34-0.76,0.76
			c0,0.42,0.34,0.76,0.76,0.76c0,0,0.01,0,0.02,0h17.84c0,0,0.01,0,0.01,0c0,0,0.01,0,0.01,0h0.01c0.41-0.01,0.74-0.35,0.74-0.76
			C194.49,38.18,194.16,37.85,193.75,37.83 M175.73,28.34h-7.55c-0.37-0.01-0.66-0.3-0.66-0.67c0-0.1,0.02-0.19,0.06-0.27l4.07-7.49
			c0.07-0.12,0.19-0.2,0.33-0.2c0.15,0,0.27,0.08,0.34,0.2l4.01,7.46c0.04,0.09,0.07,0.19,0.07,0.29
			C176.39,28.04,176.09,28.33,175.73,28.34"/>
		<path class="st1" d="M53.51,39.34c0.06,0.01,0.11,0.01,0.17,0.01h12.1c0.01,0,0.01,0,0.02,0c0.42,0,0.76-0.34,0.76-0.76
			c0-0.42-0.34-0.76-0.76-0.76h-0.08c-1.94-0.04-3.49-1.63-3.49-3.57c0-0.56,0.13-1.08,0.35-1.55l1.01-1.86
			c0.59-0.87,1.38-0.99,1.66-1h9.17c0.28,0.01,1.07,0.13,1.67,1.01c0.01,0.02,0.02,0.03,0.03,0.05l2.29,4.26v0
			c0.12,0.24,0.18,0.51,0.18,0.8c0,1.02-0.83,1.85-1.85,1.85h-2.97c0,0-0.01,0-0.02,0c-0.42,0-0.76,0.34-0.76,0.76
			c0,0.42,0.34,0.76,0.76,0.76c0.01,0,0.01,0,0.02,0h17.84c0,0,0.01,0,0.01,0c0,0,0.01,0,0.01,0h0c0.41-0.01,0.74-0.34,0.74-0.76
			c0-0.41-0.33-0.75-0.74-0.76h-0.17c-1.84-0.06-3.45-1.04-4.38-2.5L74.69,13.4v0C74.36,12.75,73.65,12,72.88,12
			c-0.73,0-1.34,0.69-1.69,1.27v0.01l-0.01,0L59.74,34.35c-1.22,2.08-3.49,3.48-6.07,3.48l0,0.01h-0.01c-0.36,0-0.67,0.25-0.75,0.61
			C52.83,38.85,53.1,39.25,53.51,39.34 M65.47,27.4l4.07-7.49c0.07-0.12,0.19-0.2,0.33-0.2c0.15,0,0.27,0.08,0.34,0.2l4.01,7.46
			c0.04,0.09,0.07,0.19,0.07,0.29c0,0.37-0.3,0.66-0.66,0.67h-7.55c-0.37,0-0.66-0.3-0.66-0.67C65.41,27.58,65.43,27.48,65.47,27.4"
			/>
		<path class="st1" d="M47.44,38.59c0-0.42-0.34-0.76-0.76-0.76h0h-0.81c-0.02,0-0.03,0-0.05,0c-0.92-0.01-1.44-0.41-1.85-0.9
			l-11.5-14.61c-0.12-0.16-0.2-0.35-0.2-0.57c0-0.33,0.17-0.61,0.42-0.77l9.99-6.41c0.59-0.38,1.04-0.5,2.23-0.52h0.83
			c0.42,0,0.75-0.34,0.75-0.76c0-0.42-0.34-0.76-0.76-0.76c-0.01,0-0.01,0-0.01,0H29.37c0,0-0.01,0-0.01,0c-0.01,0-0.01,0-0.01,0
			h-0.01v0c-0.41,0.01-0.74,0.34-0.74,0.76c0,0.41,0.33,0.75,0.74,0.76v0h0.79c0.01,0,0.02,0,0.03,0c0.46,0,0.87,0.18,1.17,0.48
			c0,0,0,0,0,0l2.25,2.24c0,0,0,0,0,0c0.19,0.19,0.31,0.46,0.31,0.75c0,0.36-0.18,0.67-0.45,0.86l-12.54,8.05
			c-0.15,0.1-0.33,0.16-0.52,0.16c-0.53,0-0.97-0.43-0.97-0.97v-7.68c0.17-2.18,1.98-3.89,4.2-3.89l0.52-0.01v0
			c0.01,0,0.01,0,0.02,0c0.42,0,0.76-0.34,0.76-0.76c0-0.42-0.34-0.76-0.76-0.76c-0.01,0-0.01,0-0.02,0H6.28c0,0-0.01,0-0.01,0
			c-0.01,0-0.01,0-0.01,0H6.25v0c-0.41,0.01-0.74,0.34-0.74,0.76c0,0.41,0.33,0.75,0.74,0.76v0l1.15,0.01
			c2.33,0,4.22,1.89,4.22,4.22c0,0,0,0,0,0v15.49c-0.09,2.25-1.94,4.04-4.21,4.04l-1.15,0.01v0c-0.41,0.01-0.74,0.34-0.74,0.76
			c0,0.41,0.33,0.75,0.74,0.76v0h0.01c0,0,0.01,0,0.01,0c0,0,0.01,0,0.01,0h5.33h7.78h4.73v0c0,0,0.01,0,0.02,0
			c0.42,0,0.76-0.34,0.76-0.76c0-0.42-0.34-0.76-0.76-0.76c-0.01,0-0.01,0-0.02,0v0l-0.52-0.01c-2.27,0-4.12-1.8-4.21-4.05V30
			c0.02-0.32,0.19-0.59,0.44-0.75v0l4.97-3.19c0.15-0.1,0.33-0.15,0.52-0.15c0.31,0,0.59,0.15,0.77,0.37l6.81,8.69
			c0.24,0.3,0.38,0.68,0.38,1.09c0,0.98-0.79,1.77-1.77,1.77v0H29.6v0c-0.41,0.01-0.74,0.34-0.74,0.76c0,0.41,0.33,0.75,0.74,0.76v0
			h0.01c0,0,0.01,0,0.01,0c0,0,0.01,0,0.01,0h17.03c0,0,0.01,0,0.01,0C47.1,39.35,47.44,39.01,47.44,38.59"/>
		<path class="st1" d="M40.65,61.14l-0.01,0.07L40.65,61.14c-0.34-0.05-0.76-0.12-1.03-0.5c-0.3-0.43-0.5-0.92-0.69-1.4
			c-0.06-0.15-0.13-0.33-0.21-0.52l-3.83-8.77c-0.01-0.02-0.02-0.05-0.03-0.08c-0.09-0.26-0.22-0.65-0.52-0.65
			c-0.29,0-0.36,0.14-0.9,1.24l-0.15,0.3c-0.13,0.27-0.29,0.6-0.49,0.98l-4.4,8.69c-0.25,0.52-0.63,0.63-0.91,0.71
			c-0.2,0.06-0.45,0.13-0.45,0.41c0,0.21,0.14,0.36,0.34,0.36c0.22,0,0.46-0.01,0.68-0.03l0.06,0c0.46-0.03,0.97-0.03,1.5,0
			c0.24,0.02,0.51,0.04,0.78,0.04h0l0.09,0c0.01,0,0.03,0,0.04,0c0.02,0,0.03,0,0.05,0c0.13,0,0.27-0.01,0.38-0.12
			c0.08-0.07,0.12-0.18,0.12-0.32c0-0.32-0.33-0.37-0.57-0.41c-0.4-0.07-0.74-0.12-0.74-0.71c0-0.19,0.07-0.42,0.11-0.52l1.18-2.38
			c0.12-0.24,0.31-0.26,0.71-0.26h4.05c0.39,0,0.47,0.15,0.64,0.52l0.59,1.41c0.04,0.1,0.08,0.2,0.13,0.32l0.01,0.03
			c0.18,0.42,0.41,0.95,0.41,1.2c0,0.2-0.15,0.28-0.53,0.39c-0.27,0.08-0.58,0.18-0.58,0.49c0,0.23,0.2,0.35,0.58,0.35
			c0.26,0,0.53-0.02,0.76-0.04c0.53-0.03,1.12-0.03,1.86,0l0.08,0c0.35,0.02,0.7,0.03,1.06,0.03c0.11,0,0.43,0,0.43-0.33
			C41.28,61.24,40.94,61.19,40.65,61.14 M35.71,56.08c-0.03,0-0.08,0.01-0.16,0.01H31.9c-0.05,0-0.08,0-0.1-0.01
			c0-0.01,0.01-0.03,0.02-0.04l2.07-4.12l1.79,4.07C35.69,56.03,35.7,56.06,35.71,56.08"/>
		<path class="st1" d="M57.47,49.49c-0.28,0-0.58,0.02-0.81,0.04c-0.52,0.03-1,0.03-1.45,0c-0.24-0.02-0.46-0.04-0.68-0.04
			c-0.46,0-0.56,0.23-0.56,0.43c0,0.32,0.35,0.38,0.66,0.43c0.5,0.08,0.72,0.17,0.72,0.46c0,0.35-0.17,0.59-0.3,0.76l-1.95,2.92
			c-0.13,0.19-0.19,0.25-0.21,0.26c-0.02-0.01-0.08-0.05-0.21-0.23l-2.23-3.29l-0.03-0.05c-0.1-0.13-0.26-0.36-0.26-0.55
			c0-0.14,0.13-0.22,0.42-0.36c0.22-0.1,0.45-0.21,0.45-0.45c0-0.1-0.05-0.35-0.53-0.35c-0.07,0-0.18,0.01-0.32,0.02
			c-0.29,0.03-0.6,0.05-0.97,0.05c-0.74,0-1.16-0.02-1.49-0.04l-0.02,0c-0.21-0.01-0.38-0.02-0.58-0.02c-0.24,0-0.41,0.23-0.41,0.43
			c0,0.26,0.26,0.32,0.49,0.38c0.28,0.07,0.67,0.16,0.92,0.54l3.07,4.55l0.06,0.08c0.13,0.18,0.34,0.46,0.34,0.69v4.12
			c0,0.6-0.41,0.69-0.81,0.78c-0.27,0.06-0.61,0.13-0.61,0.46c0,0.38,0.34,0.38,0.45,0.38c0.05,0,0.14-0.01,0.31-0.02
			c0.29-0.02,0.79-0.05,1.35-0.05c0.39,0,0.91,0.02,1.33,0.04l0.07,0c0.33,0.02,0.52,0.02,0.62,0.02c0.21,0,0.6,0,0.6-0.35
			c0-0.33-0.32-0.42-0.6-0.5c-0.44-0.12-0.9-0.24-0.9-1.04v-4.17c0-0.12,0.04-0.17,0.18-0.36c0.06-0.08,0.14-0.18,0.23-0.31
			l2.57-3.71c0.05-0.06,0.09-0.13,0.13-0.19l0.04-0.06c0.23-0.34,0.44-0.67,0.81-0.87c0.02-0.01,0.04-0.02,0.07-0.03l0.02-0.01
			c0.16-0.07,0.44-0.18,0.44-0.44C57.85,49.7,57.69,49.49,57.47,49.49"/>
		<path class="st1" d="M78.42,49.49c-0.16,0-0.32,0.01-0.47,0.03l-0.04,0c-0.5,0.05-1.04,0.03-1.57,0l-0.08-0.01
			c-0.33-0.01-0.67-0.03-1-0.03c-0.14,0-0.36,0.16-0.36,0.35c0,0.39,0.37,0.46,0.69,0.53c0.5,0.1,1.01,0.21,1.01,1.14v5.52
			c0,2.62-1.37,3.95-4.07,3.95c-2.64,0-4.22-1.42-4.22-3.79v-6.12c0-0.62,0.32-0.69,0.69-0.78c0.23-0.05,0.54-0.13,0.54-0.45
			c0-0.08-0.03-0.15-0.09-0.21c-0.12-0.12-0.34-0.16-0.64-0.14h-0.03c-0.26,0-0.54,0.01-0.8,0.03l-0.07,0.01
			c-0.59,0.03-1.12,0.03-1.6,0l-0.05,0c-0.22-0.02-0.44-0.03-0.67-0.03c-0.01,0-0.58,0.01-0.58,0.35c0,0.38,0.4,0.46,0.72,0.53
			c0.47,0.1,0.78,0.2,0.78,0.61v5.74c0,2.28,0.62,5.3,5.93,5.3c1.78,0,3.15-0.46,4.05-1.37c1.28-1.29,1.27-3.08,1.26-3.75v-5.37
			c0-0.9,0.35-1.06,0.67-1.2c0.19-0.08,0.42-0.19,0.42-0.47C78.84,49.64,78.59,49.49,78.42,49.49"/>
		<path class="st1" d="M98.14,61.16c-0.35-0.07-0.99-0.2-1.83-1.38l-2.94-4.13c1.33-0.58,2.22-1.78,2.22-3.03
			c0-0.87-0.27-1.58-0.82-2.1c-0.49-0.47-1.45-1.03-3.29-1.03c-0.12,0-0.23,0-0.35,0.01c-0.02,0-0.04,0-0.06,0l-0.02,0
			c-0.46,0-0.93,0.01-1.46,0.03c-0.47,0.02-1.05,0.04-1.62,0.04c-0.57,0-0.75-0.03-0.88-0.05c-0.08-0.01-0.15-0.02-0.29-0.02
			c-0.31,0-0.55,0.16-0.55,0.38c0,0.37,0.36,0.43,0.65,0.47c0.46,0.08,0.94,0.17,0.94,1.04v8.67c0,0.7-0.44,0.86-0.82,1.01
			c-0.24,0.09-0.52,0.19-0.52,0.47c0,0.21,0.15,0.36,0.36,0.36c0.33,0,0.66-0.01,0.98-0.03l0.07-0.01c0.31-0.01,0.68-0.03,1.04-0.03
			c1.16,0,1.69,0.04,1.92,0.06c0.09,0.01,0.15,0.01,0.19,0.01h0l0.13,0c0.09,0,0.2-0.01,0.28-0.09c0.06-0.06,0.09-0.13,0.09-0.22
			c0-0.37-0.39-0.45-0.78-0.53c-0.56-0.11-1.14-0.23-1.14-0.99v-3.6c0-0.02,0-0.05-0.01-0.08c-0.01-0.09-0.01-0.13,0.01-0.16
			c0.01-0.01,0.07-0.06,0.29-0.06h0.53c1.22,0,1.23,0.01,1.59,0.56l2.23,3.25c0.75,1.05,1.49,1.91,2.9,1.91
			c1.27,0,1.37-0.2,1.37-0.38C98.56,61.24,98.33,61.2,98.14,61.16 M90.34,50.41h0.18c1,0,3.34,0.25,3.34,2.6
			c0,2.08-1.82,2.24-2.38,2.24c-0.15,0-0.3,0-0.46,0c-0.8,0.03-1.25,0-1.37-0.09v-4.3c0-0.18,0.03-0.29,0.09-0.35
			C89.83,50.42,90.04,50.41,90.34,50.41"/>
		<path class="st1" d="M116.29,49.49c-0.09,0-0.18,0.01-0.32,0.02c-0.26,0.03-0.56,0.05-1.1,0.05c-0.18,0-0.37-0.01-0.54-0.03
			l-0.05,0c-0.18-0.02-0.4-0.04-0.62-0.04c-0.39,0-0.45,0.25-0.45,0.4c0,0.31,0.32,0.37,0.58,0.42c0.41,0.08,0.6,0.15,0.6,0.46
			c0.03,0.15,0.01,0.45-0.25,1.05l-3.2,7.31c-0.02,0.03-0.03,0.07-0.04,0.1l-0.02,0.05c-0.03,0.07-0.08,0.21-0.11,0.23
			c-0.07-0.03-0.23-0.41-0.38-0.74l-0.01-0.03c-0.06-0.13-0.12-0.27-0.19-0.43l-3.22-7.02c-0.07-0.15-0.15-0.39-0.15-0.59
			c0-0.27,0.21-0.38,0.41-0.49c0.17-0.09,0.35-0.19,0.34-0.38c0-0.24-0.26-0.35-0.43-0.35c-0.11,0-0.3,0.01-0.52,0.03
			c-0.31,0.02-0.66,0.04-0.93,0.04c-0.26,0-0.53-0.01-0.82-0.03c-0.31-0.02-0.59-0.04-0.87-0.04c-0.26,0-0.43,0.16-0.43,0.42
			c0,0.28,0.27,0.35,0.49,0.41c0.31,0.08,0.7,0.19,0.95,0.73l4.54,9.95c0.03,0.07,0.07,0.15,0.1,0.24c0.18,0.44,0.39,0.93,0.74,0.93
			c0.32,0,0.47-0.36,0.63-0.76l0.01-0.03c0.04-0.1,0.08-0.2,0.13-0.3l4.58-10.03c0.29-0.63,0.55-0.72,0.73-0.79
			c0.13-0.04,0.31-0.11,0.31-0.38C116.77,49.8,116.74,49.49,116.29,49.49"/>
		<path class="st1" d="M133.74,59.12c-0.13,0-0.21,0.09-0.33,0.23c-0.39,0.42-1.43,1.53-4.78,1.53c-0.61,0-0.96-0.07-1.1-0.21
			c-0.14-0.14-0.13-0.41-0.13-0.78c0-0.08,0-0.16,0-0.24V56.5l0-0.1c0-0.09,0-0.21,0.03-0.24c0.01-0.01,0.04-0.03,0.13-0.03h2.72
			c0.82,0,0.91,0.45,1,0.89c0.06,0.27,0.13,0.61,0.49,0.61c0.23,0,0.38-0.15,0.38-0.4c0-0.2-0.01-0.39-0.01-0.57l0-0.12
			c-0.01-0.21-0.02-0.43-0.02-0.65c0-0.27,0.01-0.55,0.02-0.81l0-0.15c0.01-0.25,0.01-0.5,0.01-0.76c0-0.24-0.12-0.5-0.38-0.5
			c-0.27,0-0.35,0.26-0.42,0.46c-0.13,0.4-0.28,0.9-1.44,0.9h-1.99c-0.23,0-0.47,0-0.51-0.03c-0.02-0.03-0.02-0.16-0.02-0.27v-3.34
			c0-0.38,0-0.64,0.08-0.72c0.11-0.11,0.52-0.12,1.18-0.11l0.41,0c0.05,0,0.11,0,0.17,0l0.12,0c0.78,0,2.22-0.01,2.57,0.41
			c0.1,0.13,0.11,0.35,0.13,0.56c0.02,0.3,0.05,0.72,0.46,0.72c0.28,0,0.54-0.27,0.54-2.2c0-0.46-0.2-0.55-0.36-0.55
			c-0.28,0-0.83,0.02-1.36,0.03l-0.22,0.01c-0.44,0.01-0.89,0.03-1.06,0.03c-0.23,0-0.48-0.01-0.8-0.01l-0.15-0.01
			c-0.78-0.02-1.97-0.05-4.26-0.05c-0.34,0-0.82,0-0.82,0.38c0,0.32,0.39,0.39,0.6,0.43c0.03,0,0.06,0.01,0.1,0.02
			c0.84,0.11,0.84,0.78,0.84,1.55v7.77c0,0.85-0.06,1.17-0.41,1.32c-0.18,0.08-0.32,0.13-0.43,0.18l-0.04,0.01
			c-0.22,0.08-0.4,0.15-0.44,0.41c0,0.13,0.06,0.35,0.45,0.35c0.42,0,0.86-0.02,1.28-0.03l0.09-0.01c0.29-0.01,0.59-0.02,0.87-0.03
			c0.81-0.02,1.65,0.01,2.38,0.03l0.12,0.01c0.55,0.02,1.13,0.03,1.69,0.03h0.22c0.68,0,1.13-0.03,1.7-0.63
			c0.66-0.65,0.97-1.24,0.97-1.77C134.06,59.31,133.95,59.12,133.74,59.12"/>
		<path class="st1" d="M146.99,49.49c-0.79,0-1.47,0.02-2.13,0.03l-0.36,0.01c-0.78,0.02-1.52,0.04-2.3-0.01
			c-0.25-0.02-0.55-0.04-0.85-0.04c-0.21,0-0.43,0.12-0.43,0.35c0,0.3,0.3,0.37,0.54,0.42c0.45,0.11,0.97,0.23,0.97,1.23v8.48
			c0,0.95-0.47,1.09-0.85,1.19c-0.2,0.06-0.46,0.13-0.46,0.39c0,0.22,0.14,0.35,0.36,0.35c0.05,0,0.28-0.01,0.58-0.02l0.35-0.01
			c0.51-0.02,1.05-0.04,1.13-0.04c0.48,0,0.97,0.02,1.4,0.04l0.1,0c0.43,0.01,0.88,0.03,1.31,0.03c4.76,0,7.28-2.35,7.28-6.8
			C153.62,51.75,150.2,49.49,146.99,49.49 M151.91,56.04c0,1.52-0.48,5.05-4.92,5.05c-0.78,0-2.14-0.19-2.71-0.72
			c-0.03-0.03-0.07-0.19-0.06-0.9l0-0.07c0-0.06,0-0.11,0-0.15v-8.09c0-0.71,0-0.9,1.65-0.9C149.48,50.29,151.91,52.61,151.91,56.04
			"/>
		<path class="st1" d="M172.97,61.14l-0.02,0.07L172.97,61.14c-0.34-0.05-0.76-0.12-1.03-0.5c-0.3-0.43-0.5-0.92-0.69-1.4
			c-0.06-0.15-0.13-0.33-0.21-0.52l-3.83-8.78c-0.01-0.02-0.02-0.05-0.03-0.08c-0.09-0.26-0.22-0.65-0.52-0.65
			c-0.29,0-0.36,0.14-0.9,1.24l-0.15,0.3c-0.13,0.27-0.29,0.59-0.48,0.97l-4.4,8.69c-0.26,0.52-0.63,0.63-0.91,0.71
			c-0.2,0.06-0.45,0.13-0.45,0.41c0,0.21,0.14,0.36,0.34,0.36c0.22,0,0.46-0.01,0.68-0.03l0.05,0c0.46-0.03,0.97-0.03,1.5,0
			c0.24,0.02,0.51,0.04,0.78,0.04l0.09,0c0.01,0,0.03,0,0.04,0c0.02,0,0.03,0,0.05,0c0.13,0,0.27-0.01,0.38-0.12
			c0.08-0.07,0.12-0.18,0.12-0.32c0-0.32-0.33-0.37-0.57-0.41c-0.4-0.07-0.74-0.12-0.74-0.71c0-0.19,0.07-0.42,0.11-0.52l1.18-2.38
			c0.12-0.24,0.31-0.26,0.71-0.26h4.05c0.39,0,0.47,0.15,0.64,0.52l0.59,1.41c0.04,0.1,0.08,0.2,0.13,0.32l0.01,0.03
			c0.18,0.42,0.41,0.95,0.41,1.2c0,0.2-0.15,0.28-0.53,0.39c-0.27,0.08-0.58,0.18-0.58,0.49c0,0.23,0.2,0.35,0.58,0.35
			c0.26,0,0.53-0.02,0.76-0.04c0.53-0.03,1.12-0.03,1.86,0l0.08,0c0.35,0.02,0.7,0.03,1.06,0.03c0.11,0,0.43,0,0.43-0.33
			C173.6,61.24,173.27,61.19,172.97,61.14 M168.03,56.08c-0.03,0-0.08,0.01-0.16,0.01h-3.64c-0.05,0-0.08,0-0.1-0.01
			c0.01-0.01,0.01-0.03,0.02-0.04l2.07-4.12l1.79,4.07C168.01,56.03,168.02,56.06,168.03,56.08"/>
	</g>
</g>
</svg>
